#N canvas 634 273 912 774 16;
#X text 307 225 1 select the subpatch to clone;
#X text 34 190 place the cursor here ->, f 14;
#X text 311 301 3 type pdc + <number of clones>;
#X obj 616 140 tgl 20 1 empty empty DEBUG 25 7 0 10 -262144 -1 -1 1
1;
#X obj 1 0 cnv 15 800 50 empty empty empty 20 12 0 14 -232576 -66577
0;
#X obj 616 165 v debug;
#X text 16 120 Usage : pdc <nb_of_clones>;
#X text 15 73 Needed externals : iemguts lib;
#X text 308 254 2 create a new object (ctrl+1);
#X text 327 276 immediately below this subpatch;
#X text 307 335 4 press escape or click in another part of the patch
;
#X text 17 10 pdc - make multiple copies of a subpatch;
#X text 703 137 debug mode is for blocking automatic deletion of pdc
object after operation, f 19;
#N canvas 0 50 611 370 example 1;
#X obj 194 112 pack f f;
#X obj 194 141 poly 4 1;
#X obj 194 200 pack f f f;
#X obj 192 338 dac~;
#X msg 176 51 69;
#X msg 245 53 71;
#X msg 296 52 73;
#N canvas 0 50 610 485 synth 0;
#X obj 145 26 inlet;
#X obj 142 175 osc~;
#X obj 145 114 mtof;
#X obj 250 119 dbtorms;
#X msg 250 148 \$1 10;
#X obj 142 204 *~;
#X obj 250 177 line~;
#X obj 365 117 select 0;
#X obj 365 146 delay 20;
#X msg 365 175 0;
#X msg 410 172 1;
#X obj 364 222 switch~;
#X obj 155 52 unpack f f;
#X obj 247 88 t f f;
#X obj 139 242 outlet~;
#X connect 0 0 12 0;
#X connect 1 0 5 0;
#X connect 2 0 1 0;
#X connect 3 0 4 0;
#X connect 4 0 6 0;
#X connect 5 0 14 0;
#X connect 6 0 5 1;
#X connect 7 0 8 0;
#X connect 7 1 10 0;
#X connect 8 0 9 0;
#X connect 9 0 11 0;
#X connect 10 0 11 0;
#X connect 12 0 2 0;
#X connect 12 1 13 0;
#X connect 13 0 3 0;
#X connect 13 1 7 0;
#X restore 47 235 pd synth;
#X obj 194 83 makenote 80 800;
#X obj 194 170 - 1;
#X text 148 234 --->;
#N canvas 0 50 610 485 1038-cloned(x4) 0;
#N canvas 0 50 610 485 synth 0;
#X obj 145 26 inlet;
#X obj 142 175 osc~;
#X obj 145 114 mtof;
#X obj 250 119 dbtorms;
#X msg 250 148 \$1 10;
#X obj 142 204 *~;
#X obj 250 177 line~;
#X obj 365 117 select 0;
#X obj 365 146 delay 20;
#X msg 365 175 0;
#X msg 410 172 1;
#X obj 364 222 switch~;
#X obj 155 52 unpack f f;
#X obj 247 88 t f f;
#X obj 139 242 outlet~;
#X connect 0 0 12 0;
#X connect 1 0 5 0;
#X connect 2 0 1 0;
#X connect 3 0 4 0;
#X connect 4 0 6 0;
#X connect 5 0 14 0;
#X connect 6 0 5 1;
#X connect 7 0 8 0;
#X connect 7 1 10 0;
#X connect 8 0 9 0;
#X connect 9 0 11 0;
#X connect 10 0 11 0;
#X connect 12 0 2 0;
#X connect 12 1 13 0;
#X connect 13 0 3 0;
#X connect 13 1 7 0;
#X restore 197 233 pd synth;
#N canvas 0 50 610 485 synth 0;
#X obj 145 26 inlet;
#X obj 142 175 osc~;
#X obj 145 114 mtof;
#X obj 250 119 dbtorms;
#X msg 250 148 \$1 10;
#X obj 142 204 *~;
#X obj 250 177 line~;
#X obj 365 117 select 0;
#X obj 365 146 delay 20;
#X msg 365 175 0;
#X msg 410 172 1;
#X obj 364 222 switch~;
#X obj 155 52 unpack f f;
#X obj 247 88 t f f;
#X obj 139 242 outlet~;
#X connect 0 0 12 0;
#X connect 1 0 5 0;
#X connect 2 0 1 0;
#X connect 3 0 4 0;
#X connect 4 0 6 0;
#X connect 5 0 14 0;
#X connect 6 0 5 1;
#X connect 7 0 8 0;
#X connect 7 1 10 0;
#X connect 8 0 9 0;
#X connect 9 0 11 0;
#X connect 10 0 11 0;
#X connect 12 0 2 0;
#X connect 12 1 13 0;
#X connect 13 0 3 0;
#X connect 13 1 7 0;
#X restore 207 243 pd synth;
#N canvas 0 50 610 485 synth 0;
#X obj 145 26 inlet;
#X obj 142 175 osc~;
#X obj 145 114 mtof;
#X obj 250 119 dbtorms;
#X msg 250 148 \$1 10;
#X obj 142 204 *~;
#X obj 250 177 line~;
#X obj 365 117 select 0;
#X obj 365 146 delay 20;
#X msg 365 175 0;
#X msg 410 172 1;
#X obj 364 222 switch~;
#X obj 155 52 unpack f f;
#X obj 247 88 t f f;
#X obj 139 242 outlet~;
#X connect 0 0 12 0;
#X connect 1 0 5 0;
#X connect 2 0 1 0;
#X connect 3 0 4 0;
#X connect 4 0 6 0;
#X connect 5 0 14 0;
#X connect 6 0 5 1;
#X connect 7 0 8 0;
#X connect 7 1 10 0;
#X connect 8 0 9 0;
#X connect 9 0 11 0;
#X connect 10 0 11 0;
#X connect 12 0 2 0;
#X connect 12 1 13 0;
#X connect 13 0 3 0;
#X connect 13 1 7 0;
#X restore 217 253 pd synth;
#N canvas 0 50 610 485 synth 0;
#X obj 145 26 inlet;
#X obj 142 175 osc~;
#X obj 145 114 mtof;
#X obj 250 119 dbtorms;
#X msg 250 148 \$1 10;
#X obj 142 204 *~;
#X obj 250 177 line~;
#X obj 365 117 select 0;
#X obj 365 146 delay 20;
#X msg 365 175 0;
#X msg 410 172 1;
#X obj 364 222 switch~;
#X obj 155 52 unpack f f;
#X obj 247 88 t f f;
#X obj 139 242 outlet~;
#X connect 0 0 12 0;
#X connect 1 0 5 0;
#X connect 2 0 1 0;
#X connect 3 0 4 0;
#X connect 4 0 6 0;
#X connect 5 0 14 0;
#X connect 6 0 5 1;
#X connect 7 0 8 0;
#X connect 7 1 10 0;
#X connect 8 0 9 0;
#X connect 9 0 11 0;
#X connect 10 0 11 0;
#X connect 12 0 2 0;
#X connect 12 1 13 0;
#X connect 13 0 3 0;
#X connect 13 1 7 0;
#X restore 227 263 pd synth;
#X obj 0 0 inlet;
#X obj 0 30 route -1 0 1 2 3;
#X obj 0 550 outlet~;
#X connect 0 0 6 0;
#X connect 1 0 6 0;
#X connect 2 0 6 0;
#X connect 3 0 6 0;
#X connect 4 0 5 0;
#X connect 5 0 0 0;
#X connect 5 0 1 0;
#X connect 5 0 2 0;
#X connect 5 0 3 0;
#X connect 5 1 0 0;
#X connect 5 2 1 0;
#X connect 5 3 2 0;
#X connect 5 4 3 0;
#X restore 197 233 pd 1038-cloned(x4) pd synth;
#X msg 459 69 \; pd dsp 1;
#X connect 0 0 1 0;
#X connect 1 0 9 0;
#X connect 1 1 2 1;
#X connect 1 2 2 2;
#X connect 2 0 11 0;
#X connect 4 0 8 0;
#X connect 5 0 8 0;
#X connect 6 0 8 0;
#X connect 8 0 0 0;
#X connect 8 1 0 1;
#X connect 9 0 2 0;
#X connect 11 0 3 0;
#X connect 11 0 3 1;
#X restore 50 392 pd example;
#X text 23 551 Control inlets forward messages to the number of the
instance that specified by first atom of the list.;
#X text 26 641 To send a message to all instances of subpatch \, you
can prepend it with -1 (instead of 'all' \, as with [clone] object).
, f 62;
#X text 26 593 Special messages handled by [clone] aren't supported
(next \, this \, set \, all).;
#N canvas 0 50 450 300 subpatch 0;
#X obj 238 200 outlet;
#X obj 12 82 inlet~;
#X obj 100 82 inlet;
#X obj 36 197 outlet~;
#X obj 128 195 outlet~;
#X restore 180 187 pd subpatch;
#X obj 33 695 clone;
#X text 23 445 As with [clone] \, signal inlets are copied to all the
instances. Signal outlets output the sum of all instances' outputs
, f 67;
#X text 23 503 Control outlets forward messages with the number of
the instance prepended to them.;
#X text 97 695 <- see help;
#X text 495 20 https://github.com/jyg/pdc;
#X connect 3 0 5 0;
