#N canvas 175 389 1250 683 12;
#X obj 558 571 iemguts/sendcanvas 1;
#X obj 148 6 loadbang;
#X obj 841 154 iemguts/canvasposition;
#X obj 22 69 v debug;
#X obj 22 94 select 0;
#X obj 22 119 delay 100;
#X obj 20 157 iemguts/canvasdelete 1;
#X msg 102 274 editmode 0 \, vis 0;
#X obj 311 13 t b b b;
#X obj 314 42 delay 200, f 22;
#X obj 751 37 v debug;
#X obj 732 87 select 0 1;
#X obj 806 542 key;
#X floatatom 806 567 5 0 0 0 - - -;
#X obj 1052 579 keyname;
#X symbolatom 1116 567 10 0 0 0 - - -;
#X msg 738 583 copy;
#X msg 1050 278 paste;
#X obj 762 126 t b b b;
#X msg 696 283 mouse -4000 -4000 1 0 \, mouseup -4000 -4000 0;
#X obj 213 152 t b b b b b b b, f 38;
#N canvas 0 50 450 300 copy_subpatch_&_select_name 0;
#X obj 134 45 inlet;
#X obj 214 273 outlet;
#X obj 192 143 unpack f f;
#X obj 259 168 - 15;
#X obj 211 197 pack f f;
#X msg 211 222 editmode 1 \, mouse \$1 \$2 1 1 \, mouseup \$1 \$2 1
\, copy \, mouse \$1 \$2 1 0 \, mouseup \$1 \$2 0;
#X obj 201 170 + 5;
#X connect 0 0 2 0;
#X connect 2 0 6 0;
#X connect 2 1 3 0;
#X connect 3 0 4 1;
#X connect 4 0 5 0;
#X connect 5 0 1 0;
#X connect 6 0 4 0;
#X restore 842 182 pd copy_subpatch_&_select_name;
#X text 720 263 deselect text;
#N canvas 0 50 610 641 type_pd_\$0-cloned_in_pd_box 0;
#X obj 62 19 inlet;
#X obj 79 567 outlet;
#X msg 196 443 key 1 \$1 0;
#X obj 156 109 list fromsymbol;
#X obj 151 53 loadbang;
#X obj 83 191 list append;
#X obj 155 247 list length;
#X obj 155 272 until;
#X obj 142 216 t l b l;
#X msg 208 286 0;
#X obj 155 297 f;
#X obj 189 309 + 1;
#X obj 162 372 list split;
#X obj 152 347 list append;
#X obj 155 322 t b f;
#X obj 197 403 list split 1;
#X obj 82 93 t b b;
#X msg 70 498 key 1 Left 0;
#X obj 156 134 list prepend 112 100 32;
#X obj 156 159 list append 32;
#X obj 156 85 symbol \$0-cloned(x\$1);
#X connect 0 0 16 0;
#X connect 2 0 1 0;
#X connect 3 0 18 0;
#X connect 4 0 20 0;
#X connect 5 0 8 0;
#X connect 6 0 7 0;
#X connect 7 0 10 0;
#X connect 8 0 6 0;
#X connect 8 1 9 0;
#X connect 8 2 13 1;
#X connect 9 0 10 1;
#X connect 10 0 11 0;
#X connect 10 0 14 0;
#X connect 11 0 10 1;
#X connect 12 1 15 0;
#X connect 13 0 12 0;
#X connect 14 0 13 0;
#X connect 14 1 12 1;
#X connect 15 0 2 0;
#X connect 16 0 5 0;
#X connect 16 1 17 0;
#X connect 17 0 1 0;
#X connect 18 0 19 0;
#X connect 19 0 5 1;
#X connect 20 0 3 0;
#X restore 783 217 pd type_pd_\$0-cloned_in_pd_box;
#X msg 955 390 key 1 Left 0;
#N canvas 0 50 450 470 count 0;
#X obj 153 41 inlet;
#X msg 54 316 clear \, vis 1 \, editmode 1 \,;
#X msg 274 146 obj 0 0 pdc/count_in_out_lets \$1;
#X obj 243 123 f \$0;
#X obj 110 167 s \$0-getconnections;
#X obj 195 208 r \$0-connections;
#X obj 194 233 list trim;
#X obj 194 258 route inlets outlets;
#X obj 189 290 s \$0-inlets;
#X obj 284 290 s \$0-outlets;
#X obj 145 83 t b b b;
#X obj 42 372 outlet;
#X connect 0 0 10 0;
#X connect 1 0 11 0;
#X connect 2 0 11 0;
#X connect 3 0 2 0;
#X connect 5 0 6 0;
#X connect 6 0 7 0;
#X connect 7 0 8 0;
#X connect 7 1 9 0;
#X connect 10 0 1 0;
#X connect 10 1 4 0;
#X connect 10 2 3 0;
#X restore 512 198 pd count inlets/outlets;
#N canvas 0 50 450 300 copy 0;
#X obj 123 10 inlet;
#X obj 137 272 outlet;
#X msg 191 194 paste;
#X obj 173 156 until;
#X obj 176 99 f \$1;
#X obj 174 127 max 1;
#X connect 0 0 4 0;
#X connect 2 0 1 0;
#X connect 3 0 2 0;
#X connect 4 0 5 0;
#X connect 5 0 3 0;
#X restore 427 261 pd copy \$1-instances of subpatch;
#X obj 399 308 t b a;
#X obj 369 417 v \$0-object_count;
#X obj 374 345 f \$1;
#X obj 371 381 max 1;
#X obj 263 97 delay 50;
#X obj 431 473 s pd-\$0-cloned(x\$1);
#N canvas 0 57 1920 1023 create_inlets 1;
#X obj 316 14 inlet;
#X obj 466 17 r \$0-inlets;
#X obj 316 191 f \$1;
#X obj 370 636 outlet;
#X obj 311 430 t b l b;
#X obj 117 266 v \$0-object_count;
#X obj 150 315 + 1;
#X obj 118 387 pack f f;
#X obj 117 291 t f f f;
#X obj 83 319 + 2;
#X obj 17 344 v \$0-object_count;
#X obj 317 217 - 1;
#X obj 349 460 list trim;
#X msg 113 216 8;
#X msg 129 441 connect \$1 0 \$2 0;
#X obj 171 342 t f f;
#N canvas 0 50 666 610 connect_route_to_all_instances 0;
#X obj 109 26 inlet;
#X obj 207 380 outlet;
#X obj 294 143 r \$0-current_inlet;
#X obj 132 88 t b b f;
#X msg 242 174 0;
#X obj 197 179 f \$1;
#X obj 197 204 until;
#X obj 185 237 f;
#X obj 237 250 + 1;
#X obj 201 298 pack f f f f;
#X obj 175 262 t f f;
#X msg 201 323 connect \$3 \$2 \$1 \$4 \, connect \$3 0 \$1 \$4;
#X connect 0 0 3 0;
#X connect 2 0 9 3;
#X connect 3 0 5 0;
#X connect 3 1 4 0;
#X connect 3 2 9 2;
#X connect 4 0 7 1;
#X connect 5 0 6 0;
#X connect 6 0 7 0;
#X connect 7 0 10 0;
#X connect 8 0 7 1;
#X connect 8 0 9 1;
#X connect 9 0 11 0;
#X connect 10 0 9 0;
#X connect 10 1 8 0;
#X connect 11 0 1 0;
#X restore 215 523 pd connect_route_to_all_instances;
#X f 16;
#X obj 314 48 f;
#X obj 315 74 t f b;
#X obj 315 102 until;
#X obj 316 135 f;
#X obj 371 144 + 1;
#X msg 366 100 0;
#X obj 306 160 t b f f;
#X obj 444 193 s \$0-current_inlet;
#X text 197 50 for each inlet;
#X msg 468 485 obj \$1 0 inlet;
#X obj 461 421 v \$0-current_inlet;
#X obj 344 380 list prepend 0;
#X obj 605 290 r \$0-current_inlet;
#X obj 327 405 list prepend obj;
#X obj 605 315 * 120;
#X obj 464 453 * 120;
#N canvas 0 50 450 300 prepare_route_arguments 0;
#X obj 42 14 inlet;
#X obj 66 321 outlet;
#X obj 74 72 until;
#X obj 74 96 f;
#X obj 114 96 + 1;
#X msg 126 72 0;
#X obj 74 146 list prepend;
#X obj 74 170 list;
#X obj 72 209 list append;
#X obj 50 45 t b f b b;
#X connect 0 0 9 0;
#X connect 2 0 3 0;
#X connect 3 0 4 0;
#X connect 3 0 6 0;
#X connect 4 0 3 1;
#X connect 5 0 3 1;
#X connect 6 0 7 0;
#X connect 7 0 6 1;
#X connect 7 0 8 1;
#X connect 8 0 1 0;
#X connect 9 0 8 0;
#X connect 9 1 2 0;
#X connect 9 2 5 0;
#X connect 9 3 6 1;
#X restore 329 256 pd prepare_route_arguments;
#X obj 358 356 list prepend 30 route -1;
#X connect 0 0 17 0;
#X connect 1 0 17 1;
#X connect 2 0 11 0;
#X connect 4 0 5 0;
#X connect 4 1 12 0;
#X connect 4 2 27 0;
#X connect 5 0 8 0;
#X connect 6 0 15 0;
#X connect 7 0 14 0;
#X connect 8 0 9 0;
#X connect 8 1 7 0;
#X connect 8 2 6 0;
#X connect 9 0 10 0;
#X connect 11 0 33 0;
#X connect 12 0 3 0;
#X connect 13 0 5 0;
#X connect 14 0 3 0;
#X connect 15 0 7 1;
#X connect 15 1 16 0;
#X connect 16 0 3 0;
#X connect 17 0 18 0;
#X connect 18 0 19 0;
#X connect 18 1 22 0;
#X connect 19 0 20 0;
#X connect 20 0 23 0;
#X connect 21 0 20 1;
#X connect 22 0 20 1;
#X connect 23 0 2 0;
#X connect 23 1 24 0;
#X connect 23 2 21 0;
#X connect 26 0 3 0;
#X connect 27 0 32 0;
#X connect 28 0 30 0;
#X connect 29 0 31 0;
#X connect 30 0 4 0;
#X connect 31 0 28 1;
#X connect 32 0 26 0;
#X connect 33 0 34 0;
#X connect 34 0 28 0;
#X restore 341 212 pd create_inlets;
#N canvas 0 57 1920 1023 create_outlets 0;
#X obj 416 14 inlet;
#X obj 370 636 outlet;
#X obj 414 48 f;
#X obj 415 102 until;
#X obj 416 135 f;
#X obj 471 132 + 1;
#X msg 466 100 0;
#X obj 736 157 * 120;
#X obj 566 17 r \$0-outlets;
#X obj 457 189 s \$0-current_outlet;
#X obj 736 132 r \$0-current_outlet;
#X text 292 98 for each outlet;
#X obj 406 265 f \$1;
#X obj 406 290 t f b;
#X obj 406 315 until;
#X obj 406 340 f;
#X msg 457 316 0;
#X obj 65 214 outlet;
#X obj 127 216 outlet;
#N canvas 0 50 450 300 (subpatch) 0;
#X obj 51 64 outlet;
#X obj 133 69 outlet;
#X restore 51 83 pd;
#X f 9;
#X obj 18 138 list prepend 0;
#N canvas 0 50 450 300 (subpatch) 0;
#X obj 51 64 outlet;
#X obj 133 69 outlet;
#X restore 129 86 pd;
#X f 9;
#N canvas 0 50 450 300 (subpatch) 0;
#X obj 51 64 outlet;
#X obj 133 69 outlet;
#X restore 207 84 pd;
#X f 9;
#X obj 77 167 list prepend 0;
#X obj 124 139 list prepend 1;
#X obj 183 168 list prepend 1;
#X obj 236 138 list prepend 2;
#X obj 295 167 list prepend 2;
#X text 529 166 create an outlet;
#X obj 463 217 v \$0-object_count;
#X obj 494 240 v \$0-object_count;
#X obj 463 241 + 1;
#X text 277 274 for each subpatch;
#X msg 561 575 obj \$2 500 list prepend \$1 \, obj \$2 550 outlet \,
connect \$3 0 \$4 0 \, connect \$1 \$5 \$3 0;
#X obj 532 95 v \$0-object_count;
#X obj 415 74 t f b b;
#X obj 407 446 * 100;
#X obj 506 310 r \$0-current_outlet;
#X obj 492 362 * 20;
#X obj 456 440 + 400;
#X obj 532 119 s \$0-current_outlet_index;
#X obj 469 461 r \$0-current_outlet_index;
#X obj 716 435 v \$0-object_count;
#X obj 780 460 + 1;
#X obj 404 394 t f f f b;
#X obj 721 459 t f f;
#X obj 398 503 pack f f f f f f;
#X obj 507 336 t f f;
#X msg 729 182 obj \$1 550 outlet;
#X obj 406 160 t b b f f b;
#X msg 395 538 obj \$2 \$3 list prepend \$1 \, connect \$1 \$5 \$6
0 \, connect \$6 0 \$4 0;
#X obj 445 350 + 1;
#X obj 413 474 +;
#X connect 0 0 2 0;
#X connect 2 0 35 0;
#X connect 3 0 4 0;
#X connect 4 0 49 0;
#X connect 5 0 4 1;
#X connect 6 0 4 1;
#X connect 7 0 48 0;
#X connect 8 0 2 1;
#X connect 10 0 7 0;
#X connect 12 0 13 0;
#X connect 13 0 14 0;
#X connect 13 1 16 0;
#X connect 14 0 15 0;
#X connect 15 0 44 0;
#X connect 16 0 15 1;
#X connect 19 0 20 0;
#X connect 19 1 23 0;
#X connect 20 0 17 0;
#X connect 21 0 24 0;
#X connect 21 1 25 0;
#X connect 22 0 26 0;
#X connect 22 1 27 0;
#X connect 23 0 18 0;
#X connect 24 0 17 0;
#X connect 25 0 18 0;
#X connect 26 0 17 0;
#X connect 27 0 18 0;
#X connect 29 0 31 0;
#X connect 31 0 30 0;
#X connect 34 0 40 0;
#X connect 35 0 3 0;
#X connect 35 1 6 0;
#X connect 36 0 52 0;
#X connect 37 0 47 0;
#X connect 38 0 39 0;
#X connect 38 0 52 1;
#X connect 39 0 46 2;
#X connect 41 0 46 3;
#X connect 42 0 45 0;
#X connect 43 0 42 0;
#X connect 44 0 46 0;
#X connect 44 1 36 0;
#X connect 44 2 51 0;
#X connect 44 3 42 0;
#X connect 45 0 46 5;
#X connect 45 1 43 0;
#X connect 46 0 50 0;
#X connect 47 0 38 0;
#X connect 47 1 46 4;
#X connect 48 0 1 0;
#X connect 49 0 12 0;
#X connect 49 1 29 0;
#X connect 49 2 9 0;
#X connect 49 3 5 0;
#X connect 49 4 34 0;
#X connect 50 0 1 0;
#X connect 51 0 15 1;
#X connect 52 0 46 1;
#X restore 223 239 pd create_outlets;
#X msg 22 379 \; pd-1009-cloned(x7) findagain;
#X msg 22 329 \; pd-1009-cloned(x7) find inlet 0;
#X text 971 27 credits : jyg@gumo.fr 2020;
#X text 852 128 1;
#X text 768 195 2;
#X text 689 257 3;
#X text 530 179 4;
#X text 448 236 5;
#X text 378 191 6;
#X text 261 217 7;
#X text 103 249 8;
#X text 25 43 9;
#X connect 1 0 8 0;
#X connect 2 0 21 0;
#X connect 3 0 4 0;
#X connect 4 0 5 0;
#X connect 5 0 6 0;
#X connect 7 0 32 0;
#X connect 8 0 9 0;
#X connect 9 0 10 0;
#X connect 9 0 31 0;
#X connect 10 0 11 0;
#X connect 11 0 18 0;
#X connect 11 1 18 0;
#X connect 12 0 13 0;
#X connect 14 1 15 0;
#X connect 16 0 0 0;
#X connect 17 0 0 0;
#X connect 18 0 19 0;
#X connect 18 1 23 0;
#X connect 18 2 2 0;
#X connect 19 0 0 0;
#X connect 20 0 3 0;
#X connect 20 1 7 0;
#X connect 20 3 34 0;
#X connect 20 4 33 0;
#X connect 20 5 26 0;
#X connect 20 6 25 0;
#X connect 21 0 0 0;
#X connect 23 0 0 0;
#X connect 24 0 0 0;
#X connect 25 0 32 0;
#X connect 26 0 27 0;
#X connect 27 0 29 0;
#X connect 27 1 32 0;
#X connect 29 0 30 0;
#X connect 30 0 28 0;
#X connect 31 0 20 0;
#X connect 33 0 32 0;
#X connect 34 2 32 0;
