#N canvas 0 0 1920 1021 12;
#X obj 558 651 iemguts/sendcanvas 1;
#X obj 307 22 loadbang;
#X obj 812 244 iemguts/canvasposition;
#X obj 22 174 select 0;
#X obj 24 234 delay 100;
#X msg 102 354 editmode 0 \, vis 0;
#X obj 425 135 delay 200, f 22;
#X obj 751 117 v debug;
#X obj 732 167 select 0 1;
#X obj 806 622 key;
#X floatatom 806 647 5 0 0 0 - - - 0;
#X obj 1052 659 keyname;
#X symbolatom 1114 685 10 0 0 0 - - - 0;
#X msg 738 663 copy;
#X msg 1050 358 paste;
#X msg 696 363 mouse -4000 -4000 1 0 \, mouseup -4000 -4000 0;
#X obj 213 232 t b b b b b b b, f 38;
#N canvas 0 0 725 540 copy_subpatch_&_select_name 0;
#X obj 134 45 inlet;
#X obj 214 333 outlet;
#X obj 192 143 unpack f f;
#X obj 259 168 - 15;
#X obj 211 197 pack f f;
#X msg 211 282 editmode 1 \, mouse \$1 \$2 1 1 \, mouseup \$1 \$2 1
\, copy \, mouse \$1 \$2 1 0 \, mouseup \$1 \$2 0;
#X obj 201 170 + 5;
#X obj 211 239 t l l;
#X obj 326 238 s \$0-canvas_coords;
#X connect 0 0 2 0;
#X connect 2 0 6 0;
#X connect 2 1 3 0;
#X connect 3 0 4 1;
#X connect 4 0 7 0;
#X connect 5 0 1 0;
#X connect 6 0 4 0;
#X connect 7 0 5 0;
#X connect 7 1 8 0;
#X restore 813 272 pd copy_subpatch_&_select_name;
#X text 720 343 deselect text;
#N canvas 0 0 610 641 type_pd_\$0-cloned_in_pd_box 0;
#X obj 62 19 inlet;
#X obj 79 567 outlet;
#X msg 196 443 key 1 \$1 0;
#X obj 156 109 list fromsymbol;
#X obj 151 53 loadbang;
#X obj 83 191 list append;
#X obj 155 247 list length;
#X obj 155 272 until;
#X obj 142 216 t l b l;
#X msg 208 286 0;
#X obj 155 297 f;
#X obj 189 309 + 1;
#X obj 162 372 list split;
#X obj 152 347 list append;
#X obj 155 322 t b f;
#X obj 197 403 list split 1;
#X obj 82 93 t b b;
#X msg 70 498 key 1 Left 0;
#X obj 156 134 list prepend 112 100 32;
#X obj 156 159 list append 32;
#X obj 156 85 symbol \$0-cloned(x\$1);
#X connect 0 0 16 0;
#X connect 2 0 1 0;
#X connect 3 0 18 0;
#X connect 4 0 20 0;
#X connect 5 0 8 0;
#X connect 6 0 7 0;
#X connect 7 0 10 0;
#X connect 8 0 6 0;
#X connect 8 1 9 0;
#X connect 8 2 13 1;
#X connect 9 0 10 1;
#X connect 10 0 11 0;
#X connect 10 0 14 0;
#X connect 11 0 10 1;
#X connect 12 1 15 0;
#X connect 13 0 12 0;
#X connect 14 0 13 0;
#X connect 14 1 12 1;
#X connect 15 0 2 0;
#X connect 16 0 5 0;
#X connect 16 1 17 0;
#X connect 17 0 1 0;
#X connect 18 0 19 0;
#X connect 19 0 5 1;
#X connect 20 0 3 0;
#X restore 783 297 pd type_pd_\$0-cloned_in_pd_box;
#X msg 955 470 key 1 Left 0;
#N canvas 470 375 1109 816 count 0;
#X obj 641 20 inlet;
#X msg 210 381 clear \, vis 1 \, editmode 1 \,;
#X obj 147 521 outlet;
#X msg 778 177 \; pd-pdc-temp.pd paste \, menusave;
#X obj 682 130 delay 20;
#X obj 600 206 delay 20;
#X msg 596 278 read pdc-temp.pd;
#X obj 750 141 delay 10;
#X msg 1038 290 vis 1 \, selectall \, copy \, vis 0;
#X msg 756 236 \; pd-pdc-temp.pd menusave \, vis 0;
#X text 1084 104 0 init;
#X msg 1089 128 \; pd-pdc-temp.pd clear \, vis 1;
#N canvas 716 58 1920 1023 parsing_\$0-pd_dump 0;
#X obj 153 190 f;
#X obj 194 188 + 1;
#X msg 382 73 0;
#X obj 147 251 list trim;
#X obj 145 279 route #N #X;
#X obj 149 383 route canvas;
#X obj 168 469 +;
#X obj 220 468 f;
#X msg 151 412 1;
#X msg 260 380 -1;
#X obj 180 594 spigot;
#X obj 156 16 inlet;
#X obj 153 151 until;
#X obj 220 339 t b a;
#X obj 219 309 route restore scalar declare;
#X obj 156 68 t b b b b;
#X obj 154 120 text size \$0-pd_dump;
#X obj 148 222 text get \$0-pd_dump;
#X obj 328 524 t a;
#X obj 179 649 list split 3;
#X msg 177 677 \$3 \$1 \$2;
#X obj 177 707 list append;
#X obj 177 732 list trim;
#X obj 179 621 route obj;
#X obj 175 756 route inlet inlet~ outlet outlet~;
#X msg 119 829 \$1;
#X obj 118 802 t f f;
#X obj 72 926 f;
#X obj 71 896 t b f;
#X msg 72 964 \$1 inlet;
#X msg 269 829 \$1;
#X obj 266 804 t f f;
#X obj 272 926 f;
#X obj 271 896 t b f;
#X msg 272 964 \$1 inlet~;
#X msg 121 782 \$1;
#X msg 266 784 \$1;
#X obj 142 950 + 1;
#X obj 347 954 + 1;
#X obj 71 862 text search \$0-inlets < 0;
#X obj 75 988 text insert \$0-inlets;
#X obj 271 871 text search \$0-inlets < 0;
#X obj 275 988 text insert \$0-inlets;
#X msg 559 829 \$1;
#X obj 558 802 t f f;
#X obj 512 926 f;
#X obj 511 896 t b f;
#X msg 709 829 \$1;
#X obj 706 804 t f f;
#X obj 712 926 f;
#X obj 711 896 t b f;
#X msg 561 782 \$1;
#X msg 706 784 \$1;
#X obj 582 950 + 1;
#X obj 787 954 + 1;
#X obj 511 862 text search \$0-outlets < 0;
#X obj 515 988 text insert \$0-outlets;
#X obj 711 871 text search \$0-outlets < 0;
#X obj 715 988 text insert \$0-outlets;
#X msg 512 964 \$1 outlet;
#X msg 712 964 \$1 outlet~;
#X text 239 567 seulement niveau premier souspatch;
#X obj 219 507 == 2;
#X connect 0 0 1 0;
#X connect 0 0 17 0;
#X connect 1 0 0 1;
#X connect 2 0 6 1;
#X connect 2 0 0 1;
#X connect 3 0 4 0;
#X connect 4 0 5 0;
#X connect 4 1 14 0;
#X connect 5 0 8 0;
#X connect 6 0 7 0;
#X connect 7 0 6 1;
#X connect 7 0 62 0;
#X connect 8 0 6 0;
#X connect 9 0 6 0;
#X connect 10 0 23 0;
#X connect 11 0 15 0;
#X connect 12 0 0 0;
#X connect 13 0 9 0;
#X connect 14 0 13 0;
#X connect 14 3 18 0;
#X connect 15 0 16 0;
#X connect 15 1 2 0;
#X connect 16 0 12 0;
#X connect 17 0 3 0;
#X connect 18 0 10 0;
#X connect 19 0 20 0;
#X connect 19 1 21 1;
#X connect 20 0 21 0;
#X connect 21 0 22 0;
#X connect 22 0 24 0;
#X connect 23 0 19 0;
#X connect 24 0 35 0;
#X connect 24 1 36 0;
#X connect 24 2 51 0;
#X connect 24 3 52 0;
#X connect 25 0 39 0;
#X connect 26 0 25 0;
#X connect 26 1 27 1;
#X connect 27 0 29 0;
#X connect 28 0 27 0;
#X connect 28 1 37 0;
#X connect 29 0 40 0;
#X connect 30 0 41 0;
#X connect 31 0 30 0;
#X connect 31 1 32 1;
#X connect 32 0 34 0;
#X connect 33 0 32 0;
#X connect 33 1 38 0;
#X connect 34 0 42 0;
#X connect 35 0 26 0;
#X connect 36 0 31 0;
#X connect 37 0 40 1;
#X connect 38 0 42 1;
#X connect 39 0 28 0;
#X connect 41 0 33 0;
#X connect 43 0 55 0;
#X connect 44 0 43 0;
#X connect 44 1 45 1;
#X connect 45 0 59 0;
#X connect 46 0 45 0;
#X connect 46 1 53 0;
#X connect 47 0 57 0;
#X connect 48 0 47 0;
#X connect 48 1 49 1;
#X connect 49 0 60 0;
#X connect 50 0 49 0;
#X connect 50 1 54 0;
#X connect 51 0 44 0;
#X connect 52 0 48 0;
#X connect 53 0 56 1;
#X connect 54 0 58 1;
#X connect 55 0 46 0;
#X connect 57 0 50 0;
#X connect 59 0 56 0;
#X connect 60 0 58 0;
#X connect 62 0 10 1;
#X restore 415 398 pd parsing_\$0-pd_dump;
#X obj 586 338 text define \$0-pd_dump;
#X obj 687 69 t b b b b;
#X obj 925 456 pdc-temp;
#X obj 590 231 t b b b;
#X text 52 37 In order to count inlet \, inlet~ \, outlet and outlet~
objects \, we copy the subpatch into an abstraction \, pdc-temp. Then
we save its contents and reopen it with [text define] object. Then
we parse the lies of code in order to count these objects and sort
them by position.;
#X connect 0 0 14 0;
#X connect 1 0 2 0;
#X connect 4 0 9 0;
#X connect 4 0 5 0;
#X connect 5 0 16 0;
#X connect 6 0 13 0;
#X connect 7 0 3 0;
#X connect 8 0 2 0;
#X connect 14 0 4 0;
#X connect 14 1 7 0;
#X connect 14 3 11 0;
#X connect 16 0 1 0;
#X connect 16 1 12 0;
#X connect 16 2 6 0;
#X restore 512 278 pd count inlets/outlets;
#N canvas 0 0 450 300 copy 0;
#X obj 123 10 inlet;
#X obj 137 272 outlet;
#X msg 191 194 paste;
#X obj 173 156 until;
#X obj 176 99 f \$1;
#X obj 174 127 max 1;
#X obj 228 51 r \$0-nb_of_clones;
#X connect 0 0 4 0;
#X connect 2 0 1 0;
#X connect 3 0 2 0;
#X connect 4 0 5 0;
#X connect 5 0 3 0;
#X connect 6 0 4 1;
#X restore 427 341 pd copy \$1-instances of subpatch;
#X obj 399 388 t b a;
#X obj 369 497 v \$0-object_count;
#X obj 374 425 f \$1;
#X obj 371 461 max 1;
#X obj 425 164 delay 50;
#X obj 431 553 s pd-\$0-cloned(x\$1);
#N canvas 0 57 1920 1023 create_inlets 0;
#X obj 313 5 inlet;
#X obj 316 411 f \$1;
#X obj 370 806 outlet;
#X obj 311 600 t b l b;
#X obj 117 436 v \$0-object_count;
#X obj 150 485 + 1;
#X obj 118 557 pack f f;
#X obj 117 461 t f f f;
#X obj 83 489 + 2;
#X obj 17 514 v \$0-object_count;
#X obj 317 437 - 1;
#X obj 349 630 list trim;
#X msg 113 386 8;
#X msg 129 611 connect \$1 0 \$2 0;
#X obj 171 512 t f f;
#N canvas 0 0 666 610 connect_route_to_all_instances 0;
#X obj 109 26 inlet;
#X obj 207 380 outlet;
#X obj 294 143 r \$0-current_inlet;
#X obj 132 88 t b b f;
#X msg 242 174 0;
#X obj 197 179 f \$1;
#X obj 197 204 until;
#X obj 185 237 f;
#X obj 237 250 + 1;
#X obj 201 298 pack f f f f;
#X obj 175 262 t f f;
#X msg 201 323 connect \$3 \$2 \$1 \$4 \, connect \$3 0 \$1 \$4;
#X obj 268 92 r \$0-nb_of_clones;
#X connect 0 0 3 0;
#X connect 2 0 9 3;
#X connect 3 0 5 0;
#X connect 3 1 4 0;
#X connect 3 2 9 2;
#X connect 4 0 7 1;
#X connect 5 0 6 0;
#X connect 6 0 7 0;
#X connect 7 0 10 0;
#X connect 8 0 7 1;
#X connect 8 0 9 1;
#X connect 9 0 11 0;
#X connect 10 0 9 0;
#X connect 10 1 8 0;
#X connect 11 0 1 0;
#X connect 12 0 5 1;
#X restore 215 693 pd connect_route_to_all_instances;
#X f 16;
#X obj 315 74 t f b;
#X obj 315 102 until;
#X obj 316 135 f;
#X obj 371 144 + 1;
#X msg 366 100 0;
#X obj 444 193 s \$0-current_inlet;
#X text 197 50 for each inlet;
#X msg 468 655 obj \$1 0 inlet;
#X obj 461 591 v \$0-current_inlet;
#X obj 344 550 list prepend 0;
#X obj 605 460 r \$0-current_inlet;
#X obj 327 575 list prepend obj;
#X obj 605 485 * 120;
#X obj 464 623 * 120;
#N canvas 0 0 450 300 prepare_route_arguments 0;
#X obj 33 -10 inlet;
#X obj 66 321 outlet;
#X obj 74 72 until;
#X obj 74 96 f;
#X obj 114 96 + 1;
#X msg 126 72 0;
#X obj 74 146 list prepend;
#X obj 74 170 list;
#X obj 72 209 list append;
#X obj 41 21 t b f b b;
#X obj 67 46 + 1;
#X connect 0 0 9 0;
#X connect 2 0 3 0;
#X connect 3 0 4 0;
#X connect 3 0 6 0;
#X connect 4 0 3 1;
#X connect 5 0 3 1;
#X connect 6 0 7 0;
#X connect 7 0 6 1;
#X connect 7 0 8 1;
#X connect 8 0 1 0;
#X connect 9 0 8 0;
#X connect 9 1 10 0;
#X connect 9 2 5 0;
#X connect 9 3 6 1;
#X connect 10 0 2 0;
#X restore 329 466 pd prepare_route_arguments;
#X obj 358 526 list prepend 30 route -1;
#X obj 317 42 text size \$0-inlets;
#X obj 306 160 t f f f;
#X obj 315 237 text get \$0-inlets;
#X obj 315 279 route bang;
#X msg 370 311 \$2;
#X obj 370 336 route inlet inlet~;
#X obj 370 361 t b;
#X obj 1059 388 v \$0-current_inlet;
#X obj 1062 420 * 120;
#X obj 993 348 t b b b;
#X obj 1031 503 v \$0-object_count;
#X obj 1077 532 + 1;
#X obj 1014 557 t f f;
#X obj 892 450 f \$1;
#X obj 892 475 t f b;
#X obj 878 525 until;
#X msg 1066 452 obj \$1 0 inlet~;
#X obj 896 564 f;
#X msg 931 517 0;
#X obj 949 609 + 1;
#X obj 878 597 t f f;
#X msg 894 696 connect \$2 0 \$1 \$3;
#X obj 894 671 pack f f f;
#X obj 424 392 r \$0-nb_of_clones;
#X obj 752 372 r \$0-nb_of_clones;
#X connect 0 0 32 0;
#X connect 1 0 10 0;
#X connect 3 0 4 0;
#X connect 3 1 11 0;
#X connect 3 2 24 0;
#X connect 4 0 7 0;
#X connect 5 0 14 0;
#X connect 6 0 13 0;
#X connect 7 0 8 0;
#X connect 7 1 6 0;
#X connect 7 2 5 0;
#X connect 8 0 9 0;
#X connect 10 0 30 0;
#X connect 11 0 2 0;
#X connect 12 0 4 0;
#X connect 13 0 2 0;
#X connect 14 0 6 1;
#X connect 14 1 15 0;
#X connect 15 0 2 0;
#X connect 16 0 17 0;
#X connect 16 1 20 0;
#X connect 17 0 18 0;
#X connect 18 0 33 0;
#X connect 19 0 18 1;
#X connect 20 0 18 1;
#X connect 23 0 2 0;
#X connect 24 0 29 0;
#X connect 25 0 27 0;
#X connect 26 0 28 0;
#X connect 27 0 3 0;
#X connect 28 0 25 1;
#X connect 29 0 23 0;
#X connect 30 0 31 0;
#X connect 31 0 25 0;
#X connect 32 0 16 0;
#X connect 33 0 34 0;
#X connect 33 1 21 0;
#X connect 33 2 19 0;
#X connect 34 0 35 0;
#X connect 35 1 36 0;
#X connect 36 0 37 0;
#X connect 37 0 38 0;
#X connect 37 1 41 0;
#X connect 38 0 1 0;
#X connect 39 0 40 0;
#X connect 39 0 54 2;
#X connect 40 0 48 0;
#X connect 41 0 45 0;
#X connect 41 1 42 0;
#X connect 41 2 39 0;
#X connect 42 0 44 0;
#X connect 43 0 42 0;
#X connect 44 0 54 1;
#X connect 44 1 43 0;
#X connect 45 0 46 0;
#X connect 46 0 47 0;
#X connect 46 1 50 0;
#X connect 47 0 49 0;
#X connect 48 0 2 0;
#X connect 49 0 52 0;
#X connect 50 0 49 1;
#X connect 51 0 49 1;
#X connect 52 0 54 0;
#X connect 52 1 51 0;
#X connect 53 0 2 0;
#X connect 54 0 53 0;
#X connect 55 0 1 1;
#X connect 56 0 45 1;
#X restore 341 292 pd create_inlets;
#N canvas 0 57 1920 1023 create_outlets 0;
#X obj 416 14 inlet;
#X obj 320 956 outlet;
#X obj 686 477 * 120;
#X text 242 418 for each outlet;
#X obj 356 585 f \$1;
#X obj 356 610 t f b;
#X obj 356 635 until;
#X obj 356 660 f;
#X msg 407 636 0;
#X text 441 500 create an outlet;
#X obj 413 537 v \$0-object_count;
#X obj 444 560 v \$0-object_count;
#X obj 413 561 + 1;
#X text 227 594 for each subpatch;
#X msg 511 895 obj \$2 500 list prepend \$1 \, obj \$2 550 outlet \,
connect \$3 0 \$4 0 \, connect \$1 \$5 \$3 0;
#X obj 444 429 v \$0-object_count;
#X obj 360 756 * 100;
#X obj 456 630 r \$0-current_outlet;
#X obj 443 755 + 400;
#X obj 444 453 s \$0-current_outlet_index;
#X obj 419 781 r \$0-current_outlet_index;
#X obj 666 755 v \$0-object_count;
#X obj 730 780 + 1;
#X obj 354 714 t f f f b;
#X obj 671 779 t f f;
#X obj 348 823 pack f f f f f f;
#X obj 457 656 t f f;
#X msg 679 502 obj \$1 550 outlet;
#X msg 345 858 obj \$2 \$3 list prepend \$1 \, connect \$1 \$5 \$6
0 \, connect \$6 0 \$4 0;
#X obj 395 670 + 1;
#X obj 363 794 +;
#X obj 420 83 t f b;
#X obj 420 111 until;
#X obj 421 144 f;
#X obj 476 153 + 1;
#X msg 471 109 0;
#X obj 411 169 t f f f;
#X obj 420 288 route bang;
#X msg 475 320 \$2;
#X obj 1274 497 * 120;
#X obj 1205 425 t b b b;
#X obj 1243 580 v \$0-object_count;
#X obj 1289 609 + 1;
#X obj 1226 634 t f f;
#X obj 1104 527 f \$1;
#X obj 1104 552 t f b;
#X obj 1090 602 until;
#X obj 1108 641 f;
#X msg 1143 594 0;
#X obj 1161 686 + 1;
#X obj 1090 674 t f f;
#X obj 1106 748 pack f f f;
#X obj 422 51 text size \$0-outlets;
#X obj 549 202 s \$0-current_outlet;
#X obj 475 345 route outlet outlet~;
#X obj 1271 465 v \$0-current_outlet;
#X msg 1106 772 connect \$1 \$3 \$2 0;
#X obj 420 246 text get \$0-outlets;
#X text 1197 371 outlet~;
#X msg 1278 529 obj \$1 550 outlet~;
#X obj 686 452 v \$0-current_outlet;
#X obj 365 385 t b b b b;
#X obj 470 690 * 20;
#X obj 430 690 * 120;
#X obj 211 510 r \$0-nb_of_clones;
#X obj 979 455 r \$0-nb_of_clones;
#X connect 0 0 52 0;
#X connect 2 0 27 0;
#X connect 4 0 5 0;
#X connect 5 0 6 0;
#X connect 5 1 8 0;
#X connect 6 0 7 0;
#X connect 7 0 23 0;
#X connect 8 0 7 1;
#X connect 10 0 12 0;
#X connect 12 0 11 0;
#X connect 15 0 19 0;
#X connect 16 0 30 0;
#X connect 17 0 26 0;
#X connect 18 0 25 2;
#X connect 20 0 25 3;
#X connect 21 0 24 0;
#X connect 22 0 21 0;
#X connect 23 0 25 0;
#X connect 23 1 16 0;
#X connect 23 2 29 0;
#X connect 23 3 21 0;
#X connect 24 0 25 5;
#X connect 24 1 22 0;
#X connect 25 0 28 0;
#X connect 26 0 62 0;
#X connect 26 0 63 0;
#X connect 26 1 25 4;
#X connect 27 0 1 0;
#X connect 28 0 1 0;
#X connect 29 0 7 1;
#X connect 30 0 25 1;
#X connect 31 0 32 0;
#X connect 31 1 35 0;
#X connect 32 0 33 0;
#X connect 33 0 36 0;
#X connect 34 0 33 1;
#X connect 35 0 33 1;
#X connect 36 0 57 0;
#X connect 36 1 53 0;
#X connect 36 2 34 0;
#X connect 37 1 38 0;
#X connect 38 0 54 0;
#X connect 39 0 59 0;
#X connect 40 0 44 0;
#X connect 40 1 41 0;
#X connect 40 2 55 0;
#X connect 41 0 43 0;
#X connect 42 0 41 0;
#X connect 43 0 51 1;
#X connect 43 1 42 0;
#X connect 44 0 45 0;
#X connect 45 0 46 0;
#X connect 45 1 48 0;
#X connect 46 0 47 0;
#X connect 47 0 50 0;
#X connect 48 0 47 1;
#X connect 49 0 47 1;
#X connect 50 0 51 0;
#X connect 50 1 49 0;
#X connect 51 0 56 0;
#X connect 52 0 31 0;
#X connect 54 0 61 0;
#X connect 54 1 40 0;
#X connect 55 0 39 0;
#X connect 55 0 51 2;
#X connect 56 0 1 0;
#X connect 57 0 37 0;
#X connect 59 0 1 0;
#X connect 60 0 2 0;
#X connect 61 0 4 0;
#X connect 61 1 10 0;
#X connect 61 2 15 0;
#X connect 61 3 60 0;
#X connect 62 0 18 0;
#X connect 63 0 30 1;
#X connect 64 0 4 1;
#X connect 65 0 44 1;
#X restore 223 319 pd create_outlets;
#X msg 22 459 \; pd-1009-cloned(x7) findagain;
#X msg 22 409 \; pd-1009-cloned(x7) find inlet 0;
#X text 971 107 credits : jyg@gumo.fr 2020;
#X text 852 208 1;
#X text 768 275 2;
#X text 689 337 3;
#X text 530 259 4;
#X text 448 316 5;
#X text 378 271 6;
#X text 261 297 7;
#X text 103 329 8;
#X text 25 123 9;
#N canvas 0 0 450 300 find-inlet 0;
#X msg 9 119 \; pd-pdc-temp.pd vis 1 \, clear \, paste \, menusave
\, vis 0;
#X msg 17 160 \; pd-pdc-temp.pd clear;
#X restore 129 558 pd find-inlet;
#X obj 765 197 t b b b b;
#X obj 323 209 delay 50;
#X obj 1257 255 text define \$0-inlets;
#X obj 1256 285 text define \$0-outlets;
#X text 1461 252 list and type of inlets in cloned subpatch;
#X text 1461 282 list and type of outlets in cloned subpatch;
#X text 996 130 https://github.com/jyg/pdc;
#X obj 308 54 f \$1;
#X obj 308 87 select 0;
#X obj 369 143 t b;
#X obj 22 272 iemguts/canvasdelete 1;
#X obj 69 208 t b;
#N canvas 404 407 532 165 \$0-pdc 1;
#X text 30 97 How many clones ?;
#X floatatom 33 127 5 1 999 0 - \$0-nb_of_clones-rcv \$0-nb_of_clones
0;
#X obj 117 125 bng 25 250 50 0 \$0-ok empty OK 5 12 0 14 #fcfcfc #000000
#000000;
#X text 11 13 pdc - make multiple copies of a subpatch;
#X text 13 37 Usage : [pdc <nb_of_clones>];
#X text 14 61 IMPORTANT : use zoom level 1;
#N canvas 0 0 450 300 help 0;
#X obj 76 50 inlet;
#X obj 75 105 pdcontrol;
#X msg 75 130 \; pd open pdc-help.pd \$1;
#X msg 77 78 dir 0;
#X connect 0 0 3 0;
#X connect 1 0 2 0;
#X connect 3 0 1 0;
#X restore 438 65 pd help;
#X obj 437 39 bng 15 250 50 0 empty empty empty 17 7 0 10 #fcfcfc #000000
#000000;
#X text 300 37 more info here -->;
#X connect 7 0 6 0;
#X restore 157 135 pd \$0-pdc;
#X obj 234 150 s pd-\$0-pdc;
#X msg 291 112 vis 1;
#X obj 445 5 r \$0-ok;
#X obj 446 34 v \$0-nb_of_clones;
#X obj 446 63 > 0;
#X obj 441 93 select 1;
#X obj 26 89 f \$1;
#X obj 67 39 r \$0-nb_of_clones;
#X msg 552 79 vis 0;
#X obj 439 404 r \$0-nb_of_clones;
#X obj 163 733 s \$0-nb_of_clones-rcv;
#X obj 164 605 loadbang;
#X obj 164 630 f \$1;
#X obj 164 655 select 0;
#X obj 164 680 delay 100;
#X msg 164 705 1;
#X connect 1 0 51 0;
#X connect 2 0 17 0;
#X connect 3 1 55 0;
#X connect 4 0 54 0;
#X connect 5 0 28 0;
#X connect 6 0 7 0;
#X connect 6 0 27 0;
#X connect 7 0 8 0;
#X connect 8 0 44 0;
#X connect 8 1 44 0;
#X connect 9 0 10 0;
#X connect 11 1 12 0;
#X connect 13 0 0 0;
#X connect 14 0 0 0;
#X connect 15 0 0 0;
#X connect 16 0 63 0;
#X connect 16 1 5 0;
#X connect 16 3 30 0;
#X connect 16 4 29 0;
#X connect 16 5 22 0;
#X connect 17 0 0 0;
#X connect 19 0 0 0;
#X connect 20 0 0 0;
#X connect 21 0 28 0;
#X connect 22 0 23 0;
#X connect 23 0 25 0;
#X connect 23 1 28 0;
#X connect 25 0 26 0;
#X connect 26 0 24 0;
#X connect 27 0 21 0;
#X connect 27 0 45 0;
#X connect 29 0 28 0;
#X connect 30 0 28 0;
#X connect 44 0 15 0;
#X connect 44 1 19 0;
#X connect 44 2 2 0;
#X connect 45 0 16 0;
#X connect 51 0 52 0;
#X connect 52 0 58 0;
#X connect 52 1 53 0;
#X connect 53 0 6 0;
#X connect 55 0 4 0;
#X connect 58 0 57 0;
#X connect 59 0 60 0;
#X connect 60 0 61 0;
#X connect 61 0 62 0;
#X connect 62 0 6 0;
#X connect 62 0 65 0;
#X connect 63 0 3 0;
#X connect 64 0 63 1;
#X connect 65 0 57 0;
#X connect 66 0 25 1;
#X connect 68 0 69 0;
#X connect 69 0 70 0;
#X connect 70 0 71 0;
#X connect 71 0 72 0;
#X connect 72 0 67 0;
